<svg version="1.1" preserveAspectRatio="none" xmlns="http://www.w3.org/2000/svg" width="500" height="500" viewBox="0 0 500 500"><rect width="100%" height="100%" fill="#1C1C1C" fill-opacity="1"/><svg viewBox="246.5801 591.288 331.2024 311.112" width="333" height="312.8005594162361" x="83.5px" y="93.5997px" xmlns="http://www.w3.org/2000/svg" xmlns:xlink="http://www.w3.org/1999/xlink" preserveAspectRatio="none"><defs></defs><style>.companyName {fill:#EDEDED;fill-opacity:1;}.icon1 {fill:#EDEDED;fill-opacity:1;}.icon2 {fill:#F35F40;fill-opacity:1;}.icon3 {fill:#B2B2B1;fill-opacity:1;}.icon3-str {stroke:#B2B2B1;stroke-opacity:1;}</style><g opacity="1" transform="rotate(0 246.5801 591.288)">
<svg width="331.2024" height="151.112" x="246.5801" y="591.288" version="1.1" preserveAspectRatio="none" viewBox="19.997596740722656 63.49946212768555 160.00009155273438 73.00051879882812">
  <g transform="matrix(1 0 0 1 0 0)"><g><path d="M178.076 104.163c-5.462-.572-11.105 1.662-14.808 5.68q-.066-.062-.133-.122c.102-.184.193-.377.238-.594.502-2.407 2.217-4.762 4.708-6.462 2.097-1.433 4.678-2.46 8.368-3.327a2.14 2.14 0 0 0 1.597-2.575 2.15 2.15 0 0 0-2.587-1.59c-2.625.618-6.5 1.701-9.812 3.964-3.023 2.064-5.166 4.811-6.143 7.836.134-2.445.348-4.617 1.327-6.324.603-1.052 1.525-1.972 2.423-2.802 2.822-2.58 5.697-4.348 8.544-5.257a2.137 2.137 0 0 0 1.39-2.69 2.153 2.153 0 0 0-2.703-1.384c-3.444 1.099-6.856 3.178-10.149 6.187-1.101 1.019-2.348 2.27-3.24 3.825-1.61 2.809-1.782 6.114-1.907 8.529-.017.325.046.633.162.915a5.2 5.2 0 0 0-1.759.931c-.625.522-1.138 1.217-1.525 2.067-1.07 2.349-.694 5.454.903 7.595-2.376 3.207-5.677 5.633-9.418 6.87-4.084 1.35-8.668 1.216-12.574-.374-4.496-1.831-8.616-5.68-12.245-11.442-1.292-2.05-2.465-4.225-3.606-6.385l15.125-4.077a2.133 2.133 0 0 0 .618-3.852 185.6 185.6 0 0 1-36.508-31.341c-1.481-1.65-3.323-3.705-6.055-4.293-1.535-.331-3.056-.109-4.156.051l-29.352 4.146c-4.269.602-8.684 1.224-12.963 2.635-.752.249-4.238.887-7.313 1.451-11.006 2.015-12.699 2.488-13.595 3.302a2.86 2.86 0 0 0-.93 2.16c.015 2.298 2.676 5.09 7.578 9.438.497.441.888.786 1.096.989 4.272 4.201 8.557 8.381 12.817 12.51q-1.287 6.747-2.567 13.498c-.402 2.126-1.01 5.338.628 8.044 1.353 2.243 8.393 7.852 8.465 7.907 2.087 1.609 4.546 2.361 6.773 3.043 4.205 1.294 8.554 2.632 13.065 3.23 2.433.326 4.879.425 7.111.425 1.424 0 2.761-.04 3.952-.089 5.627-.231 11.9-1.09 15.754-5.705 1.625-1.941 2.485-4.189 3.317-6.364.271-.708.541-1.416.84-2.108.644-1.499 1.606-4.038 2.536-6.494.733-1.937 1.482-3.916 2.063-5.35l7.444-2.007c1.315 2.504 2.674 5.06 4.218 7.511 4.117 6.535 8.915 10.951 14.261 13.129 2.637 1.072 5.517 1.611 8.41 1.611 2.42 0 4.848-.378 7.146-1.137 4.664-1.541 8.764-4.587 11.674-8.606.358.07.72.127 1.095.127q.488 0 .989-.081c2.774-.454 5.184-2.219 6.139-4.495.302-.72.448-1.46.445-2.199 2.649-3.984 7.603-6.324 12.376-5.824a2.145 2.145 0 0 0 2.363-1.903 2.14 2.14 0 0 0-1.912-2.352ZM30.439 83.659c-2.78-2.465-4.634-4.286-5.54-5.439 2.437-.599 7.256-1.481 10.405-2.059 4.38-.802 6.906-1.272 7.89-1.598 3.909-1.288 8.129-1.883 12.21-2.458l29.362-4.148c1.052-.153 1.916-.26 2.631-.104 1.367.294 2.583 1.649 3.759 2.961a190 190 0 0 0 33.439 29.435l-11.532 3.109c-1.026-1.93-2.08-3.869-3.248-5.752-4.141-6.676-8.726-11.043-14.015-13.35-3.324-1.451-7.223-2.187-11.589-2.187-1.903 0-4.132.12-6.24 1.009-2.476 1.042-4.302 3.022-4.886 5.298a2.14 2.14 0 0 0 1.552 2.602c1.146.29 2.32-.4 2.614-1.545.249-.973 1.166-1.898 2.396-2.416 1.4-.591 3.092-.67 4.563-.67 3.767 0 7.085.614 9.863 1.827 4.463 1.946 8.416 5.767 12.083 11.679.932 1.504 1.803 3.074 2.652 4.652L65 116.314c-.125.035-.457.128-.453.155-.08-.04-.246-.189-.383-.317a2 2 0 0 0-.119-.122 2072 2072 0 0 1-11.654-11.116c-2.11-2.026-4.236-4.078-6.369-6.141a2.14 2.14 0 0 0-1.712-1.749c-.034-.007-.068-.004-.102-.009a2446 2446 0 0 1-12.516-12.218 43 43 0 0 0-1.256-1.139Zm66.903 30.571c-.913 2.412-1.857 4.907-2.463 6.315a58 58 0 0 0-.908 2.273c-.739 1.931-1.437 3.756-2.604 5.15-2.78 3.329-7.943 3.974-12.626 4.167-2.879.118-6.658.187-10.315-.303-4.156-.551-8.33-1.835-12.43-3.096-1.907-.584-3.879-1.187-5.344-2.316-2.062-1.594-6.795-5.715-7.416-6.732-.733-1.211-.46-3.079-.087-5.047q1.016-5.358 2.037-10.714c1.411 1.362 2.821 2.721 4.222 4.066 3.834 3.685 7.686 7.36 11.548 11.016q.054.06.114.117c.52.496 1.306 1.245 2.482 1.499.306.068.604.095.885.095.709 0 1.315-.171 1.711-.282l32.125-8.66c-.3.785-.612 1.608-.931 2.452m63.496.561c-.374.889-1.608 1.717-2.87 1.923-.385.066-.968.064-1.527-.662-.693-.9-.894-2.357-.458-3.315.162-.355.314-.506.365-.548.171-.142.553-.24 1.029-.262q.117-.005.232-.006c1.236 0 2.372.495 2.941 1.295.529.744.432 1.233.288 1.575" data-color="1" class="icon1"></path></g></g>
</svg>
</g><g opacity="1" transform="rotate(0 246.5801 782.4)">
<svg width="331.2024" height="120" x="246.5801" y="782.4" version="1.1" preserveAspectRatio="none" viewBox="1.52 -34.68 96.60000000000001 35">
  <g transform="matrix(1 0 0 1 0 0)" class="companyName"><path id="id-D6z1nYkh6" d="M15.48 0L1.52 0L1.52-34.36L8.40-34.36L8.40-5.84L15.48-5.84L15.48 0Z M34.40 0L20.20 0L20.20-34.36L33.96-34.36L33.96-27.72L27.20-27.72L27.20-21.04L33.68-21.04L33.68-14.56L27.20-14.56L27.20-6.68L34.40-6.68L34.40 0Z M53.68 0L39.48 0L39.48-34.36L53.24-34.36L53.24-27.72L46.48-27.72L46.48-21.04L52.96-21.04L52.96-14.56L46.48-14.56L46.48-6.68L53.68-6.68L53.68 0Z M68.60 0L61.72 0L61.72-27.76L57.64-27.76L57.64-34.36L72.68-34.36L72.68-27.76L68.60-27.76L68.60 0Z M85.60 0.32Q81.44 0.32 79.28-2.22Q77.12-4.76 77.12-9.36L77.12-9.36L77.12-25.72Q77.12-30.16 79.28-32.42Q81.44-34.68 85.60-34.68L85.60-34.68Q89.76-34.68 91.92-32.42Q94.08-30.16 94.08-25.72L94.08-25.72L94.08-9.36Q94.08-4.72 91.92-2.20Q89.76 0.32 85.60 0.32L85.60 0.32ZM85.60-6Q86.52-6 86.84-6.80Q87.16-7.60 87.16-9.04L87.16-9.04L87.16-25.84Q87.16-26.96 86.86-27.66Q86.56-28.36 85.64-28.36L85.64-28.36Q83.92-28.36 83.92-25.76L83.92-25.76L83.92-9Q83.92-7.52 84.28-6.76Q84.64-6 85.60-6L85.60-6Z"/></g>
</svg>
</g></svg></svg>